<?xml version="1.0" standalone="no"?>
<!DOCTYPE svg PUBLIC "-//W3C//DTD SVG 20010904//EN"
 "http://www.w3.org/TR/2001/REC-SVG-20010904/DTD/svg10.dtd">
<svg version="1.0" xmlns="http://www.w3.org/2000/svg"
 width="246.000000pt" height="122.000000pt" viewBox="0 0 246.000000 122.000000"
 preserveAspectRatio="xMidYMid meet">

<g transform="translate(0.000000,122.000000) scale(0.100000,-0.100000)"
fill="#000000" stroke="none">
<path d="M426 1077 c-73 -39 -143 -107 -177 -172 -44 -82 -44 -105 -1 -39 21
33 59 77 83 96 51 42 134 88 159 88 13 0 16 7 12 30 -2 17 -7 30 -11 30 -3 0
-33 -15 -65 -33z"/>
<path d="M203 968 c-152 -161 -176 -431 -57 -630 66 -108 204 -209 324 -237
65 -15 187 -13 253 4 192 50 340 202 383 392 3 15 -8 1 -24 -33 -39 -80 -136
-183 -210 -222 -154 -82 -330 -82 -483 -1 -31 17 -67 42 -80 55 l-22 24 31 0
c17 0 68 -9 114 -20 124 -30 177 -27 251 14 34 18 98 52 142 76 94 50 107 59
99 71 -12 20 -86 4 -222 -46 -10 -4 -10 -8 0 -25 11 -17 9 -23 -9 -42 -19 -19
-33 -22 -103 -22 -111 0 -127 20 -20 26 88 5 118 20 86 43 -14 11 -17 22 -12
47 8 46 9 209 1 231 -4 9 -3 17 3 17 6 0 13 -18 17 -40 4 -25 12 -40 21 -40 8
0 14 1 14 3 0 15 -31 170 -35 177 -3 6 -15 10 -26 10 -23 0 -23 0 -5 36 16 30
8 57 -22 73 -44 23 -92 -40 -58 -78 21 -23 20 -31 -4 -31 -10 0 -23 -8 -28
-17 -12 -23 -36 -163 -29 -170 10 -10 27 8 28 30 0 12 4 31 9 42 5 12 7 -9 3
-55 -3 -41 0 -104 6 -139 6 -36 9 -66 8 -68 -2 -1 -41 5 -88 14 -69 13 -96 14
-152 4 -105 -17 -112 -16 -131 27 -74 166 -57 359 46 505 26 36 19 34 -19 -5z
m393 -555 c-11 -11 -19 6 -11 24 8 17 8 17 12 0 3 -10 2 -21 -1 -24z"/>
<path d="M1510 664 c0 -112 3 -145 13 -142 8 3 14 35 17 94 l5 89 30 3 c52 4
60 -9 64 -103 1 -47 7 -85 12 -85 13 0 11 167 -1 191 -8 15 -22 19 -60 19
l-50 0 0 40 c0 29 -4 40 -15 40 -13 0 -15 -23 -15 -146z"/>
<path d="M2040 790 c0 -11 7 -20 15 -20 8 0 15 9 15 20 0 11 -7 20 -15 20 -8
0 -15 -9 -15 -20z"/>
<path d="M2352 793 c5 -25 28 -28 28 -4 0 12 -6 21 -16 21 -9 0 -14 -7 -12
-17z"/>
<path d="M1907 733 c-3 -3 -47 -5 -97 -6 l-91 0 3 -100 c2 -68 7 -102 15 -104
9 -3 13 20 15 84 3 86 3 88 31 98 43 15 57 -11 57 -107 0 -45 4 -78 10 -78 6
0 10 37 10 90 0 89 0 90 27 96 48 12 58 -4 61 -100 2 -63 6 -86 15 -83 17 5
21 145 5 176 -13 24 -51 45 -61 34z"/>
<path d="M1310 720 c0 -5 19 -10 43 -10 45 0 67 -13 67 -41 0 -12 -12 -18 -45
-21 -59 -7 -75 -22 -75 -69 0 -48 20 -60 92 -56 l53 4 0 85 c0 106 -8 118 -81
118 -30 0 -54 -4 -54 -10z m108 -125 c4 -33 -18 -55 -55 -55 -29 0 -48 33 -33
59 12 23 27 30 60 28 20 -2 26 -8 28 -32z"/>
<path d="M2040 625 c0 -87 3 -105 15 -105 12 0 15 18 15 105 0 87 -3 105 -15
105 -12 0 -15 -18 -15 -105z"/>
<path d="M2130 623 c0 -85 3 -103 15 -103 12 0 15 17 15 89 0 95 3 101 55 101
35 0 44 -19 47 -105 2 -52 7 -80 16 -83 9 -3 12 19 12 86 0 114 -7 123 -96
120 l-64 -2 0 -103z"/>
<path d="M2352 628 c2 -70 7 -103 16 -106 9 -3 12 22 12 102 0 89 -3 106 -15
106 -13 0 -15 -16 -13 -102z"/>
</g>
</svg>
