<?xml version="1.0" standalone="no"?>
<!DOCTYPE svg PUBLIC "-//W3C//DTD SVG 20010904//EN"
 "http://www.w3.org/TR/2001/REC-SVG-20010904/DTD/svg10.dtd">
<svg version="1.0" xmlns="http://www.w3.org/2000/svg"
 width="1360.000000pt" height="680.000000pt" viewBox="0 0 1360.000000 680.000000"
 preserveAspectRatio="xMidYMid meet">

<g transform="translate(0.000000,680.000000) scale(0.100000,-0.100000)"
fill="#000000" stroke="none">
<path d="M6763 6000 c-24 -10 -43 -23 -43 -28 0 -6 -17 -30 -37 -55 -46 -56
-73 -128 -73 -195 0 -60 14 -94 57 -141 26 -29 34 -33 46 -22 11 8 43 10 106
7 51 -2 93 0 96 5 9 14 45 11 51 -4 7 -18 63 -16 90 3 11 8 29 30 39 48 11 17
23 32 27 32 11 0 10 86 -1 108 -28 54 -71 151 -71 161 0 6 -4 11 -9 11 -5 0
-12 11 -15 24 -3 13 -21 34 -40 45 -45 28 -162 29 -223 1z"/>
<path d="M6754 5383 c-3 -16 -7 -32 -8 -37 -1 -5 -20 -10 -41 -12 -72 -5 -200
-26 -210 -34 -5 -4 -34 -11 -62 -15 -29 -4 -53 -11 -53 -16 0 -5 -9 -9 -20 -9
-11 0 -28 -4 -38 -9 -9 -5 -46 -20 -82 -32 -110 -39 -230 -105 -385 -213 -91
-64 -187 -174 -245 -280 -27 -52 -30 -65 -30 -152 0 -87 2 -97 24 -119 54 -53
171 -41 329 35 23 11 47 20 54 20 7 0 13 4 13 9 0 5 21 17 48 26 26 8 58 22
72 30 23 14 20 15 -40 9 -36 -4 -74 -11 -85 -17 -23 -13 -309 -16 -321 -4 -23
23 87 161 171 215 54 35 226 122 241 122 6 0 25 7 40 15 16 8 37 15 46 15 9 0
19 4 22 9 4 5 25 12 49 16 23 4 47 11 52 15 27 20 284 57 361 51 6 -1 14 -25
17 -53 53 -467 90 -854 102 -1073 2 -44 9 -147 15 -230 18 -269 20 -318 20
-489 0 -93 2 -167 4 -165 3 2 7 92 10 199 3 107 7 200 8 206 1 6 32 10 82 10
63 -1 83 2 88 14 4 8 7 -15 5 -51 -1 -45 2 -65 9 -62 6 2 14 47 18 106 3 56 9
120 12 142 12 92 24 220 35 375 13 204 6 1054 -11 1119 -7 29 -27 62 -59 97
-27 29 -51 66 -54 82 -5 23 -15 33 -46 46 -23 9 -41 19 -41 23 0 5 41 7 91 5
63 -2 89 0 84 7 -4 7 -44 11 -100 11 l-93 0 -35 35 c-42 42 -55 44 -63 8z
m-24 -83 c0 -24 -42 -70 -65 -70 -12 0 -15 -16 -15 -95 0 -52 -4 -95 -8 -95
-14 0 -8 193 6 198 6 2 12 10 12 18 0 8 6 11 15 8 8 -4 15 -1 15 5 0 6 -4 11
-10 11 -5 0 -10 5 -10 10 0 6 3 9 8 9 19 -3 25 2 12 11 -12 8 -9 10 13 10 21
0 27 -5 27 -20z"/>
<path d="M7098 5313 c12 -2 32 -2 45 0 12 2 2 4 -23 4 -25 0 -35 -2 -22 -4z"/>
<path d="M7175 5300 c-2 -3 7 -6 21 -6 13 0 24 3 24 7 0 9 -40 8 -45 -1z"/>
<path d="M7143 4983 c9 -2 25 -2 35 0 9 3 1 5 -18 5 -19 0 -27 -2 -17 -5z"/>
<path d="M7404 4396 c-19 -13 -21 -21 -14 -51 7 -30 4 -41 -22 -76 -29 -41
-30 -43 -26 -149 3 -99 5 -111 27 -134 14 -14 28 -26 32 -26 5 0 25 -11 45
-25 39 -27 84 -33 84 -12 0 7 13 18 29 24 28 10 30 9 40 -18 6 -16 16 -42 22
-59 6 -16 15 -30 20 -30 5 0 9 -6 9 -14 0 -20 75 -17 97 4 58 56 65 70 60 129
-6 76 -26 151 -48 182 -10 14 -21 37 -24 52 -4 15 -11 27 -15 27 -4 0 -11 11
-14 25 -6 25 -102 109 -146 129 -14 6 -28 15 -31 20 -13 17 -103 18 -125 2z"/>
<path d="M6365 4350 c-16 -18 -19 -18 -29 -4 -30 41 -128 -30 -142 -103 -19
-104 17 -271 63 -287 10 -3 34 -15 53 -27 21 -13 36 -17 38 -10 2 6 10 11 17
11 8 0 22 11 33 25 13 17 30 25 50 25 64 0 122 81 122 171 0 58 -33 132 -84
187 -36 39 -92 45 -121 12z"/>
<path d="M7452 3850 c-18 -11 -37 -32 -42 -48 -6 -15 -17 -39 -25 -54 -8 -14
-15 -33 -15 -42 0 -8 -20 -75 -44 -148 -24 -73 -47 -158 -50 -189 l-7 -56 34
-17 c19 -9 39 -16 45 -16 12 0 22 -24 22 -50 0 -27 61 -213 74 -226 6 -6 23
-14 38 -18 37 -9 48 14 34 73 -12 52 -13 209 -1 258 l7 31 60 -4 c34 -2 68 -6
78 -9 23 -7 44 35 37 77 -8 51 -27 121 -36 133 -5 5 -19 40 -32 78 -13 37 -27
67 -31 67 -5 0 -8 6 -8 13 0 7 -9 29 -20 50 -11 20 -20 43 -20 51 0 13 -47 66
-59 66 -3 0 -21 -9 -39 -20z"/>
<path d="M6337 3813 c-14 -4 -17 -11 -12 -26 17 -59 27 -178 27 -327 0 -197
-18 -322 -59 -409 -18 -39 -9 -84 19 -89 22 -4 84 61 137 142 23 35 49 67 57
70 8 3 14 12 14 20 0 9 11 50 25 92 26 80 31 141 16 190 -5 16 -19 65 -31 109
-48 169 -115 248 -193 228z"/>
<path d="M6845 3409 c-4 -6 -4 -13 -1 -16 3 -4 6 0 6 8 0 11 2 11 10 -1 8 -13
10 -12 10 3 0 19 -15 23 -25 6z"/>
<path d="M6880 3404 c0 -20 19 -27 26 -10 3 9 10 16 16 16 5 0 7 -4 3 -9 -3
-5 -1 -12 4 -15 5 -4 12 -2 16 3 3 5 14 8 25 6 22 -4 36 10 19 21 -6 3 -15 0
-20 -7 -5 -8 -9 -9 -9 -3 0 6 -18 11 -40 11 -26 0 -40 -5 -40 -13z"/>
<path d="M6998 3255 c-1 -30 0 -55 5 -55 4 0 7 25 7 55 0 71 -7 71 -12 0z"/>
<path d="M6989 3183 c-5 -49 -4 -85 3 -96 5 -7 7 13 6 46 0 31 -3 57 -5 57 -1
0 -3 -3 -4 -7z"/>
<path d="M7135 3120 c-11 -5 -47 -18 -80 -30 -81 -30 -115 -48 -147 -78 -49
-45 -31 -62 65 -62 26 0 47 -4 47 -10 0 -5 -4 -10 -9 -10 -17 0 -168 -117
-175 -135 -6 -16 -1 -17 51 -11 31 4 60 10 63 15 7 12 132 87 156 95 30 9 80
57 89 85 l7 24 -91 -6 c-53 -4 -91 -3 -91 2 0 5 12 19 28 30 15 12 32 25 38
30 20 17 88 51 101 51 7 0 13 5 13 10 0 12 -37 12 -65 0z"/>
<path d="M4464 2180 c-12 -4 -31 -21 -43 -36 -20 -25 -21 -38 -21 -216 0 -210
6 -236 60 -258 39 -16 115 -8 140 15 23 21 40 74 40 128 0 37 0 37 -40 37
l-40 0 0 -54 c0 -56 -8 -66 -51 -66 -31 0 -39 40 -39 193 0 165 4 185 36 193
34 9 52 -11 56 -59 3 -41 4 -42 41 -45 36 -3 37 -2 37 30 0 62 -19 108 -53
128 -33 21 -87 25 -123 10z"/>
<path d="M5195 2181 c-38 -16 -58 -50 -63 -105 -5 -68 11 -101 94 -188 53 -55
64 -72 64 -100 0 -39 -15 -58 -45 -58 -30 0 -45 19 -45 57 0 31 -2 33 -35 33
-34 0 -35 -1 -35 -41 0 -83 51 -126 137 -116 57 6 88 37 98 96 10 62 -10 106
-87 189 -64 69 -69 77 -66 115 3 47 27 69 56 51 9 -6 18 -23 20 -38 3 -23 8
-26 43 -26 43 0 45 4 28 63 -17 62 -97 95 -164 68z"/>
<path d="M5473 2180 c-32 -13 -63 -68 -63 -113 0 -58 23 -100 94 -176 54 -58
66 -76 66 -104 0 -38 -15 -57 -45 -57 -30 0 -45 19 -45 57 0 31 -2 33 -35 33
-35 0 -35 0 -35 -46 0 -39 5 -51 35 -81 34 -34 38 -35 92 -31 65 6 97 33 109
94 11 59 -11 110 -81 184 -64 68 -80 98 -73 140 8 53 70 50 76 -4 3 -23 8 -26
43 -26 43 0 45 4 28 63 -17 63 -97 95 -166 67z"/>
<path d="M7178 2175 c-52 -29 -58 -57 -58 -252 0 -160 2 -181 20 -211 30 -50
104 -68 165 -40 49 22 55 50 55 257 l0 191 -28 31 c-23 26 -37 32 -78 35 -32
3 -58 -1 -76 -11z m102 -74 c6 -11 10 -87 10 -176 0 -89 -4 -165 -10 -176 -12
-21 -50 -25 -68 -7 -8 8 -12 63 -12 183 0 120 4 175 12 183 18 18 56 14 68 -7z"/>
<path d="M4716 1938 c-21 -134 -38 -249 -39 -257 -1 -9 9 -14 31 -15 29 -1 33
2 38 34 10 59 10 60 63 60 54 0 55 -2 63 -69 3 -20 9 -24 41 -25 23 -1 37 4
37 11 0 14 -68 445 -76 481 -4 20 -10 22 -62 22 l-58 0 -38 -242z m113 42 c7
-47 14 -100 18 -117 5 -33 5 -33 -36 -33 -26 0 -41 5 -41 12 0 38 35 237 40
231 4 -5 12 -46 19 -93z"/>
<path d="M5000 1923 l0 -258 35 0 35 0 0 258 0 257 -35 0 -35 0 0 -257z"/>
<path d="M5702 1924 l3 -256 105 0 105 0 3 31 3 31 -70 0 -71 0 0 80 0 80 55
0 55 0 0 35 0 35 -55 0 -55 0 0 75 0 75 70 0 70 0 0 35 0 35 -110 0 -110 0 2
-256z"/>
<path d="M6090 1927 c0 -139 2 -256 5 -259 3 -2 18 -3 35 0 l30 4 0 181 c0 99
3 178 6 175 3 -3 27 -86 53 -184 l47 -177 40 0 39 0 3 256 2 257 -35 0 -35 0
0 -152 c0 -83 -3 -149 -6 -146 -3 3 -22 70 -43 149 l-38 144 -51 3 -52 3 0
-254z"/>
<path d="M6470 2168 c0 -6 -15 -108 -34 -227 -48 -298 -47 -277 -11 -273 38 5
37 4 44 49 6 38 7 38 58 41 l52 3 6 -38 c4 -21 8 -42 9 -47 3 -14 76 -13 76 1
0 14 -68 445 -76 481 -4 20 -10 22 -64 22 -39 0 -60 -4 -60 -12z m80 -198 c6
-52 14 -105 17 -117 5 -21 2 -23 -36 -23 -26 0 -41 5 -41 12 0 39 35 237 41
231 3 -5 12 -51 19 -103z"/>
<path d="M6692 2148 c3 -31 6 -33 46 -36 l42 -3 0 -218 0 -219 35 -4 c20 -2
38 -2 40 1 3 2 5 103 5 223 l0 218 40 0 c39 0 40 1 40 35 l0 35 -126 0 -125 0
3 -32z"/>
<path d="M6982 1924 l3 -257 38 -1 37 -1 0 258 0 257 -40 0 -40 0 2 -256z"/>
<path d="M7422 1924 l3 -257 33 -1 32 -1 0 185 c0 104 4 178 9 170 4 -8 25
-78 45 -155 57 -216 50 -200 93 -199 l38 1 3 257 2 256 -35 0 -34 0 -3 -152
-3 -153 -41 150 -40 150 -52 3 -52 3 2 -257z"/>
<path d="M7766 1938 c-20 -134 -38 -249 -39 -257 -1 -9 9 -14 31 -15 34 -1 37
4 44 64 3 23 8 25 55 28 56 3 57 2 65 -67 3 -20 9 -24 41 -25 26 -1 37 3 37
13 0 16 -67 444 -75 479 -5 20 -11 22 -63 22 l-58 0 -38 -242z m113 42 c7 -47
14 -100 18 -117 5 -33 5 -33 -37 -33 l-43 0 6 38 c3 20 11 77 18 125 7 48 15
84 19 80 4 -4 13 -46 19 -93z"/>
<path d="M8050 1923 l0 -258 105 3 105 3 0 29 c0 29 0 29 -67 32 l-68 3 0 223
0 222 -37 0 -38 0 0 -257z"/>
<path d="M8302 1924 l3 -255 108 -2 107 -2 0 32 0 32 -67 3 -68 3 -3 78 -3 77
56 0 55 0 0 35 0 35 -55 0 -55 0 0 75 0 75 70 0 70 0 0 35 0 35 -110 0 -110 0
2 -256z"/>
<path d="M8692 1924 l3 -257 89 2 c151 4 156 12 156 256 0 245 -6 255 -160
255 l-90 0 2 -256z m163 1 l0 -180 -26 -9 c-57 -20 -59 -14 -59 189 l0 186 43
-3 42 -3 0 -180z"/>
<path d="M9002 1924 l3 -256 105 0 105 0 3 31 3 31 -70 0 -71 0 0 80 0 80 55
0 55 0 0 35 0 35 -55 0 -55 0 0 75 0 75 70 0 70 0 0 35 0 35 -110 0 -110 0 2
-256z"/>
<path d="M5171 1558 l-20 -33 21 -3 c14 -3 33 9 57 32 l36 36 -37 0 c-30 0
-40 -6 -57 -32z"/>
<path d="M6742 1555 l-22 -35 29 0 c21 0 36 9 55 35 l27 35 -33 0 c-27 0 -37
-7 -56 -35z"/>
<path d="M4844 1476 c-37 -16 -57 -61 -56 -121 0 -55 12 -76 87 -156 64 -68
80 -105 64 -146 -6 -17 -16 -23 -39 -23 -32 0 -39 9 -44 56 -3 25 -8 29 -40
32 -34 3 -36 2 -36 -28 0 -42 23 -94 51 -114 27 -19 97 -21 134 -4 35 16 55
57 55 113 0 60 -26 107 -94 175 -60 58 -77 101 -56 140 18 34 62 24 75 -17 8
-29 13 -33 43 -33 l35 0 -6 42 c-7 56 -42 89 -98 94 -25 3 -57 -2 -75 -10z"/>
<path d="M5404 1475 c-49 -25 -58 -55 -62 -209 -7 -243 10 -293 101 -303 93
-11 137 31 137 132 l0 55 -35 0 -35 0 0 -48 c0 -26 -5 -53 -12 -60 -18 -18
-56 -14 -68 7 -6 11 -10 88 -10 180 0 168 6 191 49 191 28 0 41 -21 41 -67 0
-42 0 -43 35 -43 l35 0 0 55 c0 46 -5 60 -28 86 -34 38 -99 49 -148 24z"/>
<path d="M7088 1474 c-55 -29 -73 -108 -43 -181 9 -21 45 -67 80 -104 54 -56
65 -73 65 -101 0 -39 -15 -58 -45 -58 -30 0 -45 19 -45 57 0 31 -2 33 -35 33
-34 0 -35 -1 -35 -40 0 -81 41 -120 126 -120 37 0 51 6 74 28 65 65 49 151
-45 252 -64 68 -80 98 -73 140 8 53 70 50 76 -4 3 -23 7 -26 44 -26 l40 0 -7
37 c-10 55 -23 73 -60 89 -43 18 -82 17 -117 -2z"/>
<path d="M7381 1477 c-13 -6 -34 -25 -45 -40 -19 -26 -21 -41 -21 -205 0 -97
3 -190 8 -205 16 -58 131 -89 186 -51 43 30 51 71 51 249 0 193 -9 227 -64
250 -43 18 -83 19 -115 2z m87 -69 c8 -8 12 -63 12 -183 0 -120 -4 -175 -12
-183 -18 -18 -56 -14 -68 7 -6 11 -10 88 -10 180 0 132 3 162 16 175 18 19 45
21 62 4z"/>
<path d="M7672 1475 c-53 -24 -62 -60 -62 -250 0 -178 8 -219 51 -249 27 -18
97 -21 132 -5 37 17 57 60 57 123 l0 56 -35 0 -35 0 0 -48 c0 -52 -12 -72 -45
-72 -41 0 -45 16 -45 195 0 181 3 195 47 195 27 0 43 -27 43 -74 0 -35 1 -36
36 -36 l36 0 -4 60 c-3 49 -10 66 -30 87 -32 31 -98 40 -146 18z"/>
<path d="M5080 1220 l0 -261 107 3 107 3 1 30 0 30 -70 5 -70 5 -3 77 -3 77
58 3 c57 3 58 3 61 35 l3 32 -58 3 -58 3 -3 72 -3 72 72 3 72 3 1 33 1 32
-107 0 -108 0 0 -260z"/>
<path d="M5640 1260 c0 -240 5 -265 55 -288 41 -19 109 -15 138 8 40 31 47 77
47 298 l0 202 -40 0 -40 0 -2 -222 -3 -223 -30 -3 c-51 -6 -55 10 -55 240 l0
208 -35 0 -35 0 0 -220z"/>
<path d="M5940 1219 l0 -260 38 3 37 3 3 108 c3 105 3 107 27 107 42 0 55 -24
55 -103 0 -107 5 -119 48 -115 l35 3 -2 94 c-2 95 -11 129 -38 144 -12 7 -11
13 9 34 20 22 23 34 23 110 0 80 -1 86 -28 109 -25 21 -37 24 -118 24 l-89 0
0 -261z m158 123 c3 -73 -7 -92 -49 -92 l-29 0 0 81 0 80 38 -3 37 -3 3 -63z"/>
<path d="M6240 1219 l0 -260 38 3 37 3 3 258 2 257 -40 0 -40 0 0 -261z"/>
<path d="M6360 1445 c0 -34 1 -35 40 -35 l40 0 2 -222 3 -223 38 -3 37 -3 0
225 0 226 45 0 c45 0 45 0 45 35 l0 35 -125 0 -125 0 0 -35z"/>
<path d="M6650 1220 l0 -261 108 3 107 3 3 33 3 32 -70 0 -71 0 0 80 0 80 55
0 55 0 0 35 0 35 -55 0 -55 0 0 75 0 75 70 0 70 0 0 35 0 35 -110 0 -110 0 0
-260z"/>
<path d="M7910 1220 l0 -260 35 0 35 0 0 260 0 260 -35 0 -35 0 0 -260z"/>
<path d="M8110 1475 c0 -3 -18 -118 -40 -255 -22 -137 -40 -252 -40 -255 0 -3
16 -5 35 -5 34 0 34 1 41 50 l7 50 52 0 53 0 8 -47 c9 -46 10 -48 47 -51 20
-2 37 -1 37 2 0 2 -18 116 -40 253 -22 136 -40 251 -40 256 0 4 -27 7 -60 7
-33 0 -60 -2 -60 -5z m79 -221 c10 -66 16 -122 14 -126 -5 -9 -67 -11 -75 -3
-3 3 3 58 13 123 10 64 19 121 19 126 0 5 2 7 6 4 3 -3 13 -59 23 -124z"/>
<path d="M8352 1223 l3 -258 105 0 105 0 3 32 3 32 -68 3 -68 3 -3 223 -2 222
-40 0 -40 0 2 -257z"/>
<path d="M8610 1220 l0 -260 110 0 110 0 0 35 0 35 -70 0 -70 0 0 80 0 80 55
0 55 0 0 35 0 35 -55 0 -55 0 0 75 0 75 70 0 70 0 0 35 0 35 -110 0 -110 0 0
-260z"/>
</g>
</svg>
